<svg width="243" height="55" viewBox="0 0 243 55" fill="none" xmlns="http://www.w3.org/2000/svg">
<path d="M58.1572 23.94V36H55.4572V23.4H69.1372V36H66.4372V23.94H58.1572Z" fill="black"/>
<path d="M80.0707 29.7C80.5867 29.7 81.0127 29.556 81.3487 29.268C81.6967 28.98 81.9547 28.626 82.1227 28.206C82.3027 27.774 82.3927 27.312 82.3927 26.82C82.3927 26.316 82.3027 25.854 82.1227 25.434C81.9547 25.002 81.6967 24.642 81.3487 24.354C81.0127 24.066 80.5867 23.922 80.0707 23.922L74.9767 23.94V29.7H80.0707ZM74.9767 36H72.2767V23.4H81.6907C82.4467 23.4 83.0767 23.568 83.5807 23.904C84.0967 24.24 84.4807 24.666 84.7327 25.182C84.9847 25.686 85.1107 26.232 85.1107 26.82C85.1107 27.408 84.9847 27.96 84.7327 28.476C84.4807 28.98 84.0967 29.4 83.5807 29.736C83.0767 30.072 82.4467 30.24 81.6907 30.24H74.9767V36Z" fill="black"/>
<path d="M86.2836 29.718C86.2836 28.842 86.4036 28.068 86.6436 27.396C86.8836 26.712 87.2076 26.124 87.6156 25.632C88.0236 25.14 88.4976 24.732 89.0376 24.408C89.5776 24.072 90.1476 23.802 90.7476 23.598C91.3476 23.394 91.9596 23.25 92.5836 23.166C93.2076 23.082 93.8076 23.04 94.3836 23.04C94.9596 23.04 95.5596 23.082 96.1836 23.166C96.8076 23.25 97.4196 23.394 98.0196 23.598C98.6196 23.79 99.1896 24.054 99.7296 24.39C100.27 24.726 100.744 25.14 101.152 25.632C101.56 26.124 101.884 26.706 102.124 27.378C102.364 28.038 102.484 28.806 102.484 29.682C102.484 30.558 102.364 31.338 102.124 32.022C101.884 32.694 101.56 33.276 101.152 33.768C100.744 34.26 100.27 34.674 99.7296 35.01C99.1896 35.334 98.6196 35.598 98.0196 35.802C97.4196 36.006 96.8076 36.15 96.1836 36.234C95.5596 36.318 94.9596 36.36 94.3836 36.36C93.8076 36.36 93.2076 36.318 92.5836 36.234C91.9596 36.15 91.3476 36.012 90.7476 35.82C90.1476 35.616 89.5776 35.346 89.0376 35.01C88.4976 34.674 88.0236 34.26 87.6156 33.768C87.2076 33.276 86.8836 32.7 86.6436 32.04C86.4036 31.368 86.2836 30.594 86.2836 29.718ZM88.9656 29.7C88.9536 31.668 89.3856 33.18 90.2616 34.236C91.1376 35.28 92.5116 35.808 94.3836 35.82C95.3196 35.82 96.1296 35.682 96.8136 35.406C97.4976 35.118 98.0556 34.71 98.4876 34.182C98.9316 33.642 99.2616 32.994 99.4776 32.238C99.6936 31.47 99.8016 30.618 99.8016 29.682C99.8016 28.746 99.6936 27.906 99.4776 27.162C99.2616 26.406 98.9316 25.764 98.4876 25.236C98.0556 24.696 97.4976 24.288 96.8136 24.012C96.1296 23.724 95.3196 23.58 94.3836 23.58C93.4476 23.58 92.6376 23.718 91.9536 23.994C91.2816 24.258 90.7236 24.654 90.2796 25.182C89.8356 25.698 89.5056 26.334 89.2896 27.09C89.0736 27.846 88.9656 28.716 88.9656 29.7Z" fill="black"/>
<path d="M115.78 36H104.386V23.4H114.7V23.94H107.086V29.7H111.622L111.244 30.24H107.086V35.46H115.78V36Z" fill="black"/>
<path d="M117.479 36V23.4H120.179V36H117.479ZM126.713 36L122.303 29.7H125.399L129.809 36H126.713ZM125.489 23.4H126.173L121.763 29.7H121.079L125.489 23.4Z" fill="black"/>
<path d="M136.783 23.94V36H134.083V23.94H128.269V23.4H142.543V23.94H136.783Z" fill="black"/>
<path d="M157.876 23.9399V35.9999H155.176V23.3999H168.856V35.9999H166.156V23.9399H157.876Z" fill="black"/>
<path d="M180.066 35.9999V23.3999H182.766V35.9999H180.066ZM170.868 35.9999H170.202L179.04 23.3999H179.706L170.868 35.9999Z" fill="black"/>
<path d="M196.93 35.9999V23.3999H199.63V35.9999H196.93ZM185.914 35.9999V23.3999H188.614V34.7399L195.706 24.6599H196.39L188.416 35.9999H185.914Z" fill="black"/>
<path d="M209.666 23.9399V35.9999H206.966V23.9399H201.152V23.3999H215.426V23.9399H209.666Z" fill="black"/>
<path d="M216.952 35.9999V23.3999H219.652V35.9999H216.952ZM226.186 35.9999L221.776 29.6999H224.872L229.282 35.9999H226.186ZM224.962 23.3999H225.646L221.236 29.6999H220.552L224.962 23.3999Z" fill="black"/>
<path d="M234.972 30.2399L230.922 35.9999H230.256L239.094 23.3999H239.76L235.35 29.6999H240.12V23.3999H242.82V35.9999H240.12V30.2399H234.972Z" fill="black"/>
<path fill-rule="evenodd" clip-rule="evenodd" d="M11.9576 23.3052C11.5923 22.934 10.9838 22.9257 10.5985 23.311L2.28083 31.6287C1.90975 31.9938 1.90127 32.602 2.28619 32.9873C2.28606 32.9872 2.28632 32.9874 2.28619 32.9873L10.6292 41.3054C10.9944 41.6766 11.6029 41.685 11.9882 41.2997L20.2968 32.9911C20.6729 32.6062 20.664 31.9995 20.2867 31.6343L20.2809 31.6287L11.9576 23.3052ZM13.3801 21.8994C12.2247 20.7285 10.3432 20.7379 9.18432 21.8968L0.874997 30.2061C-0.295902 31.3615 -0.286547 33.243 0.872363 34.4019L9.20728 42.7119C10.3627 43.8821 12.2437 43.8726 13.4024 42.7139L21.7144 34.4019L21.7201 34.3961C22.8599 33.2377 22.8701 31.3585 21.6843 30.2036L13.3801 21.8994Z" fill="black"/>
<path d="M33.6034 46.1084L25.2915 54.4203C24.5189 55.193 23.2727 55.193 22.5125 54.4203L14.2006 46.1084C13.4279 45.3358 13.4279 44.0896 14.2006 43.3294L22.5125 35.0175C23.2851 34.2448 24.5313 34.2448 25.2915 35.0175L33.6034 43.3294C34.3636 44.0896 34.3636 45.3358 33.6034 46.1084Z" fill="#FF3000"/>
<path fill-rule="evenodd" clip-rule="evenodd" d="M37.3247 23.3052C36.9595 22.934 36.351 22.9257 35.9657 23.311L27.648 31.6287C27.2768 31.9939 27.2685 32.6024 27.6538 32.9877L35.9715 41.3054C36.3367 41.6766 36.9452 41.685 37.3305 41.2997L45.6391 32.9911C46.0171 32.6043 46.0082 31.9887 45.6424 31.623L37.3247 23.3052ZM38.7473 21.8994C37.5919 20.7285 35.7104 20.7379 34.5515 21.8968L26.2422 30.2061C25.0713 31.3615 25.0806 33.243 26.2396 34.4019L34.5489 42.7112C35.7042 43.8821 37.5858 43.8728 38.7447 42.7139L47.0566 34.4019L47.0624 34.3961C48.2023 33.2375 48.2105 31.3626 47.0566 30.2087L38.7473 21.8994Z" fill="black"/>
<path fill-rule="evenodd" clip-rule="evenodd" d="M29.8169 2.28658C29.8169 2.28665 29.817 2.2865 29.8169 2.28658L15.2808 16.8476C14.9096 17.2128 14.9013 17.8213 15.2866 18.2066L23.6043 26.5243C23.9695 26.8955 24.578 26.9039 24.9633 26.5186L39.5118 11.97C39.882 11.6058 39.8905 10.9892 39.4993 10.6042L39.4936 10.5986L31.1759 2.28083C30.8108 1.9097 30.2022 1.90149 29.8169 2.28658ZM32.5985 0.875003C31.4431 -0.295902 29.5616 -0.286549 28.4027 0.872363L13.8746 15.4254C12.7041 16.5808 12.7136 18.462 13.8724 19.6208L22.1817 27.9301C23.337 29.101 25.2186 29.0917 26.3775 27.9328L40.9177 13.3926C42.0885 12.2373 42.0801 10.3413 40.9053 9.18182L32.5985 0.875003Z" fill="black"/>
</svg>
