<svg width="188" height="112" viewBox="0 0 188 112" fill="none" xmlns="http://www.w3.org/2000/svg">
<path d="M3.15723 95.94V108H0.457226V95.4H14.1372V108H11.4372V95.94H3.15723ZM25.0707 101.7C25.5867 101.7 26.0127 101.556 26.3487 101.268C26.6967 100.98 26.9547 100.626 27.1227 100.206C27.3027 99.774 27.3927 99.312 27.3927 98.82C27.3927 98.316 27.3027 97.854 27.1227 97.434C26.9547 97.002 26.6967 96.642 26.3487 96.354C26.0127 96.066 25.5867 95.922 25.0707 95.922L19.9767 95.94V101.7H25.0707ZM19.9767 108H17.2767V95.4H26.6907C27.4467 95.4 28.0767 95.568 28.5807 95.904C29.0967 96.24 29.4807 96.666 29.7327 97.182C29.9847 97.686 30.1107 98.232 30.1107 98.82C30.1107 99.408 29.9847 99.96 29.7327 100.476C29.4807 100.98 29.0967 101.4 28.5807 101.736C28.0767 102.072 27.4467 102.24 26.6907 102.24H19.9767V108ZM31.2836 101.718C31.2836 100.842 31.4036 100.068 31.6436 99.396C31.8836 98.712 32.2076 98.124 32.6156 97.632C33.0236 97.14 33.4976 96.732 34.0376 96.408C34.5776 96.072 35.1476 95.802 35.7476 95.598C36.3476 95.394 36.9596 95.25 37.5836 95.166C38.2076 95.082 38.8076 95.04 39.3836 95.04C39.9596 95.04 40.5596 95.082 41.1836 95.166C41.8076 95.25 42.4196 95.394 43.0196 95.598C43.6196 95.79 44.1896 96.054 44.7296 96.39C45.2696 96.726 45.7436 97.14 46.1516 97.632C46.5596 98.124 46.8836 98.706 47.1236 99.378C47.3636 100.038 47.4836 100.806 47.4836 101.682C47.4836 102.558 47.3636 103.338 47.1236 104.022C46.8836 104.694 46.5596 105.276 46.1516 105.768C45.7436 106.26 45.2696 106.674 44.7296 107.01C44.1896 107.334 43.6196 107.598 43.0196 107.802C42.4196 108.006 41.8076 108.15 41.1836 108.234C40.5596 108.318 39.9596 108.36 39.3836 108.36C38.8076 108.36 38.2076 108.318 37.5836 108.234C36.9596 108.15 36.3476 108.012 35.7476 107.82C35.1476 107.616 34.5776 107.346 34.0376 107.01C33.4976 106.674 33.0236 106.26 32.6156 105.768C32.2076 105.276 31.8836 104.7 31.6436 104.04C31.4036 103.368 31.2836 102.594 31.2836 101.718ZM33.9656 101.7C33.9536 103.668 34.3856 105.18 35.2616 106.236C36.1376 107.28 37.5116 107.808 39.3836 107.82C40.3196 107.82 41.1296 107.682 41.8136 107.406C42.4976 107.118 43.0556 106.71 43.4876 106.182C43.9316 105.642 44.2616 104.994 44.4776 104.238C44.6936 103.47 44.8016 102.618 44.8016 101.682C44.8016 100.746 44.6936 99.906 44.4776 99.162C44.2616 98.406 43.9316 97.764 43.4876 97.236C43.0556 96.696 42.4976 96.288 41.8136 96.012C41.1296 95.724 40.3196 95.58 39.3836 95.58C38.4476 95.58 37.6376 95.718 36.9536 95.994C36.2816 96.258 35.7236 96.654 35.2796 97.182C34.8356 97.698 34.5056 98.334 34.2896 99.09C34.0736 99.846 33.9656 100.716 33.9656 101.7ZM60.7803 108H49.3863V95.4H59.7003V95.94H52.0863V101.7H56.6223L56.2443 102.24H52.0863V107.46H60.7803V108ZM62.4792 108V95.4H65.1792V108H62.4792ZM71.7132 108L67.3032 101.7H70.3992L74.8092 108H71.7132ZM70.4892 95.4H71.1732L66.7632 101.7H66.0792L70.4892 95.4ZM81.7833 95.94V108H79.0833V95.94H73.2693V95.4H87.5433V95.94H81.7833Z" fill="white"/>
<path d="M102.876 95.94V108H100.176V95.4H113.856V108H111.156V95.94H102.876ZM125.066 108V95.4H127.766V108H125.066ZM115.868 108H115.202L124.04 95.4H124.706L115.868 108ZM141.93 108V95.4H144.63V108H141.93ZM130.914 108V95.4H133.614V106.74L140.706 96.66H141.39L133.416 108H130.914ZM154.666 95.94V108H151.966V95.94H146.152V95.4H160.426V95.94H154.666ZM161.952 108V95.4H164.652V108H161.952ZM171.186 108L166.776 101.7H169.872L174.282 108H171.186ZM169.962 95.4H170.646L166.236 101.7H165.552L169.962 95.4ZM179.972 102.24L175.922 108H175.256L184.094 95.4H184.76L180.35 101.7H185.12V95.4H187.82V108H185.12V102.24H179.972Z" fill="white"/>
<path d="M89.192 48.7042L77.0643 60.8319C75.937 61.9592 74.1187 61.9592 73.0096 60.8319L60.8455 48.7042C59.7182 47.5769 59.7182 45.7586 60.8455 44.6495L72.9732 32.5218C74.1005 31.3944 75.9188 31.3944 77.0279 32.5218L89.1556 44.6495C90.3011 45.7586 90.3011 47.5769 89.192 48.7042Z" stroke="white" stroke-width="2" stroke-miterlimit="10"/>
<path d="M107.571 66.8155L95.443 78.9432C94.3157 80.0706 92.4974 80.0706 91.3883 78.9432L79.2605 66.8155C78.1332 65.6882 78.1332 63.8699 79.2605 62.7608L91.3883 50.6331C92.5156 49.5058 94.3338 49.5058 95.443 50.6331L107.571 62.7608C108.68 63.8699 108.68 65.6882 107.571 66.8155Z" fill="#FF3100"/>
<path d="M126.168 48.7027L114.04 60.8305C112.913 61.9578 111.095 61.9578 109.986 60.8305L97.858 48.7027C96.7307 47.5754 96.7307 45.7572 97.858 44.648L109.986 32.5203C111.113 31.393 112.931 31.393 114.04 32.5203L126.168 44.648C127.277 45.7572 127.277 47.5754 126.168 48.7027Z" stroke="white" stroke-width="2" stroke-miterlimit="10"/>
<path d="M117.215 18.0461L95.9958 39.2651C94.8685 40.3924 93.0503 40.3924 91.9411 39.2651L79.8134 27.1373C78.6861 26.01 78.6861 24.1918 79.8134 23.0827L101.014 1.84549C102.142 0.718171 103.96 0.718171 105.069 1.84549L117.197 13.9732C118.342 15.1005 118.342 16.937 117.215 18.0461Z" stroke="white" stroke-width="2" stroke-miterlimit="10"/>
</svg>
