<svg width="46" height="46" viewBox="0 0 46 46" fill="none" xmlns="http://www.w3.org/2000/svg">
<rect x="7" y="1" width="32" height="44" rx="2" stroke="#FF3100" stroke-width="2"/>
<mask id="path-2-inside-1_1_3041" fill="white">
<path d="M27.3091 23.7119C24.9068 23.7119 22.9414 25.6774 22.9414 28.0796C22.9414 30.4818 24.9068 32.4472 27.3091 32.4472C29.7113 32.4472 31.6767 30.4818 31.6767 28.0796C31.6767 25.6774 29.7113 23.7119 27.3091 23.7119ZM27.3091 31.3553C25.5074 31.3553 24.0333 29.8812 24.0333 28.0796C24.0333 26.2779 25.5074 24.8038 27.3091 24.8038C29.1107 24.8038 30.5848 26.2779 30.5848 28.0796C30.5848 29.8812 29.1107 31.3553 27.3091 31.3553Z"/>
</mask>
<path d="M27.3091 23.7119C24.9068 23.7119 22.9414 25.6774 22.9414 28.0796C22.9414 30.4818 24.9068 32.4472 27.3091 32.4472C29.7113 32.4472 31.6767 30.4818 31.6767 28.0796C31.6767 25.6774 29.7113 23.7119 27.3091 23.7119ZM27.3091 31.3553C25.5074 31.3553 24.0333 29.8812 24.0333 28.0796C24.0333 26.2779 25.5074 24.8038 27.3091 24.8038C29.1107 24.8038 30.5848 26.2779 30.5848 28.0796C30.5848 29.8812 29.1107 31.3553 27.3091 31.3553Z" fill="#FF3100"/>
<path d="M27.3091 13.7119C19.384 13.7119 12.9414 20.1545 12.9414 28.0796H32.9414C32.9414 31.2002 30.4297 33.7119 27.3091 33.7119V13.7119ZM12.9414 28.0796C12.9414 36.0046 19.384 42.4472 27.3091 42.4472V22.4472C30.4297 22.4472 32.9414 24.9589 32.9414 28.0796H12.9414ZM27.3091 42.4472C35.2341 42.4472 41.6767 36.0046 41.6767 28.0796H21.6767C21.6767 24.9589 24.1884 22.4472 27.3091 22.4472V42.4472ZM41.6767 28.0796C41.6767 20.1545 35.2341 13.7119 27.3091 13.7119V33.7119C24.1884 33.7119 21.6767 31.2002 21.6767 28.0796H41.6767ZM27.3091 21.3553C31.0302 21.3553 34.0333 24.3584 34.0333 28.0796H14.0333C14.0333 35.4041 19.9846 41.3553 27.3091 41.3553V21.3553ZM34.0333 28.0796C34.0333 31.8008 31.0302 34.8038 27.3091 34.8038V14.8038C19.9846 14.8038 14.0333 20.7551 14.0333 28.0796H34.0333ZM27.3091 34.8038C23.5879 34.8038 20.5848 31.8008 20.5848 28.0796H40.5848C40.5848 20.7551 34.6336 14.8038 27.3091 14.8038V34.8038ZM20.5848 28.0796C20.5848 24.3584 23.5879 21.3553 27.3091 21.3553V41.3553C34.6336 41.3553 40.5848 35.4041 40.5848 28.0796H20.5848Z" fill="#FF3100" mask="url(#path-2-inside-1_1_3041)"/>
<mask id="path-4-inside-2_1_3041" fill="white">
<path d="M33.9248 26.4504C33.7079 26.2839 33.4911 26.0063 33.4369 25.8952C33.3827 25.7287 33.4369 25.3956 33.4911 25.0625C33.5995 24.5073 33.7079 23.8966 33.3827 23.3414C33.0032 22.8418 32.4069 22.7863 31.8106 22.6752C31.5396 22.6197 31.1601 22.6197 31.0517 22.5087C30.9433 22.3976 30.7807 22.0645 30.6723 21.8425C30.4554 21.3428 30.1844 20.7321 29.5881 20.5101C28.9918 20.3435 28.4497 20.6211 28.0161 20.8987C27.745 21.0652 27.4198 21.2318 27.2571 21.2318C27.0945 21.2318 26.7693 21.0652 26.4982 20.8987C26.0103 20.6211 25.4683 20.288 24.9262 20.5101C24.3299 20.7321 24.0588 21.2873 23.842 21.8425C23.7336 22.1201 23.571 22.3976 23.4083 22.5087C23.2999 22.6197 22.9747 22.6752 22.6494 22.6752C22.1073 22.7308 21.4568 22.8418 21.0774 23.3414C20.7521 23.8411 20.8606 24.4518 20.969 25.007C21.0232 25.2846 21.0774 25.6732 21.0232 25.8397C20.969 26.0063 20.6979 26.2284 20.5353 26.3949C20.1558 26.839 19.668 27.2832 19.668 27.8939C19.668 28.5046 20.1558 29.0042 20.5895 29.3928C20.8063 29.5594 21.0232 29.837 21.0774 29.948C21.1316 30.1146 21.0774 30.4477 21.0232 30.7808C20.9148 31.336 20.8063 31.9467 21.1316 32.5018C21.5111 33.0015 22.1073 33.057 22.7036 33.168C22.8663 33.168 23.0831 33.2236 23.2457 33.2791V37.887C23.2457 38.3312 23.4626 38.7198 23.842 38.8863C24.0046 38.9419 24.1673 38.9974 24.3299 38.9974C24.5467 38.9974 24.7636 38.9419 24.9804 38.7753L27.3114 36.9987L29.6423 38.7753C29.9676 39.0529 30.4012 39.0529 30.7807 38.8863C31.1601 38.7198 31.377 38.3312 31.377 37.887V33.2236C31.5396 33.168 31.7564 33.168 31.9191 33.1125C32.4611 33.057 33.1116 32.946 33.4911 32.4463C33.8706 31.9467 33.7079 31.336 33.5995 30.7253C33.5453 30.4477 33.4911 30.0591 33.5453 29.8925C33.5995 29.726 33.8706 29.5039 34.0332 29.3373C34.4669 28.9487 34.9547 28.5046 34.9547 27.8384C34.8463 27.2832 34.3584 26.839 33.9248 26.4504ZM27.2571 35.5553L24.2757 37.776V34.778C24.4383 35.0001 24.6551 35.1667 24.9262 35.2777C25.5225 35.4443 26.0646 35.1667 26.4982 34.8891C26.7693 34.7225 27.0945 34.556 27.2571 34.556C27.4198 34.556 27.745 34.7225 28.0161 34.8891C28.3955 35.1111 28.8292 35.3332 29.2629 35.3332C29.3713 35.3332 29.4797 35.3332 29.6423 35.2777C29.9134 35.1667 30.1302 35.0001 30.2386 34.8336V37.8315L27.2571 35.5553ZM33.2201 28.5601C32.8948 28.8932 32.5696 29.1708 32.4069 29.6149C32.2443 30.0591 32.3527 30.5587 32.4611 31.0029C32.5154 31.2804 32.6238 31.7246 32.5154 31.8356C32.4611 31.9467 31.9733 32.0022 31.7022 32.0577C31.2686 32.1132 30.7807 32.1687 30.4012 32.4463C30.0218 32.7239 29.8591 33.168 29.6423 33.5567C29.5339 33.8342 29.3171 34.2229 29.2086 34.2784C29.1002 34.3339 28.6666 34.1118 28.5039 33.9453C28.1245 33.7232 27.6908 33.4456 27.2029 33.4456C26.7151 33.4456 26.2814 33.7232 25.9019 33.9453C25.6851 34.0563 25.3056 34.2784 25.1972 34.2784C25.0888 34.2229 24.9262 33.7787 24.8178 33.5011C24.6551 33.057 24.4383 32.6684 24.0588 32.3908C23.6794 32.1132 23.2457 32.0577 22.7578 32.0022C22.4868 31.9467 22.0531 31.8911 21.9447 31.7801C21.8905 31.6691 21.9447 31.2249 21.9989 30.9473C22.1073 30.5032 22.1616 30.0035 22.0531 29.5594C21.9447 29.1153 21.5653 28.8377 21.24 28.5046C21.0232 28.2825 20.6979 28.0049 20.6979 27.8384C20.6979 27.6718 21.0232 27.3942 21.24 27.1722C21.5653 26.839 21.8905 26.5615 22.0531 26.1173C22.2158 25.6732 22.1073 25.1735 21.9989 24.7294C21.9989 24.5628 21.8905 24.1187 21.9989 24.0077C22.0531 23.8966 22.541 23.8411 22.8121 23.7856C23.2457 23.7301 23.7336 23.6745 24.1131 23.397C24.4925 23.1194 24.6551 22.6752 24.872 22.2866C24.9262 22.009 25.0888 21.6204 25.2514 21.5649C25.3598 21.5094 25.7935 21.7314 25.9561 21.898C26.3356 22.1201 26.7693 22.3421 27.2571 22.3421C27.745 22.3421 28.1787 22.0645 28.5581 21.8425C28.775 21.7314 29.1544 21.5094 29.2629 21.5094C29.3713 21.5649 29.5881 21.9535 29.6965 22.2311C29.8591 22.6752 30.076 23.0639 30.4554 23.3414C30.8349 23.619 31.2686 23.6745 31.7564 23.7301C32.0275 23.7856 32.4611 23.8411 32.5696 23.9521C32.6238 24.0632 32.5696 24.5073 32.5154 24.7849C32.4069 25.229 32.3527 25.7287 32.4611 26.1728C32.5696 26.617 32.949 26.8946 33.2743 27.2277C33.4911 27.4497 33.8164 27.7273 33.8164 27.8939C33.8164 28.0604 33.4369 28.3935 33.2201 28.5601Z"/>
</mask>
<path d="M33.9248 26.4504C33.7079 26.2839 33.4911 26.0063 33.4369 25.8952C33.3827 25.7287 33.4369 25.3956 33.4911 25.0625C33.5995 24.5073 33.7079 23.8966 33.3827 23.3414C33.0032 22.8418 32.4069 22.7863 31.8106 22.6752C31.5396 22.6197 31.1601 22.6197 31.0517 22.5087C30.9433 22.3976 30.7807 22.0645 30.6723 21.8425C30.4554 21.3428 30.1844 20.7321 29.5881 20.5101C28.9918 20.3435 28.4497 20.6211 28.0161 20.8987C27.745 21.0652 27.4198 21.2318 27.2571 21.2318C27.0945 21.2318 26.7693 21.0652 26.4982 20.8987C26.0103 20.6211 25.4683 20.288 24.9262 20.5101C24.3299 20.7321 24.0588 21.2873 23.842 21.8425C23.7336 22.1201 23.571 22.3976 23.4083 22.5087C23.2999 22.6197 22.9747 22.6752 22.6494 22.6752C22.1073 22.7308 21.4568 22.8418 21.0774 23.3414C20.7521 23.8411 20.8606 24.4518 20.969 25.007C21.0232 25.2846 21.0774 25.6732 21.0232 25.8397C20.969 26.0063 20.6979 26.2284 20.5353 26.3949C20.1558 26.839 19.668 27.2832 19.668 27.8939C19.668 28.5046 20.1558 29.0042 20.5895 29.3928C20.8063 29.5594 21.0232 29.837 21.0774 29.948C21.1316 30.1146 21.0774 30.4477 21.0232 30.7808C20.9148 31.336 20.8063 31.9467 21.1316 32.5018C21.5111 33.0015 22.1073 33.057 22.7036 33.168C22.8663 33.168 23.0831 33.2236 23.2457 33.2791V37.887C23.2457 38.3312 23.4626 38.7198 23.842 38.8863C24.0046 38.9419 24.1673 38.9974 24.3299 38.9974C24.5467 38.9974 24.7636 38.9419 24.9804 38.7753L27.3114 36.9987L29.6423 38.7753C29.9676 39.0529 30.4012 39.0529 30.7807 38.8863C31.1601 38.7198 31.377 38.3312 31.377 37.887V33.2236C31.5396 33.168 31.7564 33.168 31.9191 33.1125C32.4611 33.057 33.1116 32.946 33.4911 32.4463C33.8706 31.9467 33.7079 31.336 33.5995 30.7253C33.5453 30.4477 33.4911 30.0591 33.5453 29.8925C33.5995 29.726 33.8706 29.5039 34.0332 29.3373C34.4669 28.9487 34.9547 28.5046 34.9547 27.8384C34.8463 27.2832 34.3584 26.839 33.9248 26.4504ZM27.2571 35.5553L24.2757 37.776V34.778C24.4383 35.0001 24.6551 35.1667 24.9262 35.2777C25.5225 35.4443 26.0646 35.1667 26.4982 34.8891C26.7693 34.7225 27.0945 34.556 27.2571 34.556C27.4198 34.556 27.745 34.7225 28.0161 34.8891C28.3955 35.1111 28.8292 35.3332 29.2629 35.3332C29.3713 35.3332 29.4797 35.3332 29.6423 35.2777C29.9134 35.1667 30.1302 35.0001 30.2386 34.8336V37.8315L27.2571 35.5553ZM33.2201 28.5601C32.8948 28.8932 32.5696 29.1708 32.4069 29.6149C32.2443 30.0591 32.3527 30.5587 32.4611 31.0029C32.5154 31.2804 32.6238 31.7246 32.5154 31.8356C32.4611 31.9467 31.9733 32.0022 31.7022 32.0577C31.2686 32.1132 30.7807 32.1687 30.4012 32.4463C30.0218 32.7239 29.8591 33.168 29.6423 33.5567C29.5339 33.8342 29.3171 34.2229 29.2086 34.2784C29.1002 34.3339 28.6666 34.1118 28.5039 33.9453C28.1245 33.7232 27.6908 33.4456 27.2029 33.4456C26.7151 33.4456 26.2814 33.7232 25.9019 33.9453C25.6851 34.0563 25.3056 34.2784 25.1972 34.2784C25.0888 34.2229 24.9262 33.7787 24.8178 33.5011C24.6551 33.057 24.4383 32.6684 24.0588 32.3908C23.6794 32.1132 23.2457 32.0577 22.7578 32.0022C22.4868 31.9467 22.0531 31.8911 21.9447 31.7801C21.8905 31.6691 21.9447 31.2249 21.9989 30.9473C22.1073 30.5032 22.1616 30.0035 22.0531 29.5594C21.9447 29.1153 21.5653 28.8377 21.24 28.5046C21.0232 28.2825 20.6979 28.0049 20.6979 27.8384C20.6979 27.6718 21.0232 27.3942 21.24 27.1722C21.5653 26.839 21.8905 26.5615 22.0531 26.1173C22.2158 25.6732 22.1073 25.1735 21.9989 24.7294C21.9989 24.5628 21.8905 24.1187 21.9989 24.0077C22.0531 23.8966 22.541 23.8411 22.8121 23.7856C23.2457 23.7301 23.7336 23.6745 24.1131 23.397C24.4925 23.1194 24.6551 22.6752 24.872 22.2866C24.9262 22.009 25.0888 21.6204 25.2514 21.5649C25.3598 21.5094 25.7935 21.7314 25.9561 21.898C26.3356 22.1201 26.7693 22.3421 27.2571 22.3421C27.745 22.3421 28.1787 22.0645 28.5581 21.8425C28.775 21.7314 29.1544 21.5094 29.2629 21.5094C29.3713 21.5649 29.5881 21.9535 29.6965 22.2311C29.8591 22.6752 30.076 23.0639 30.4554 23.3414C30.8349 23.619 31.2686 23.6745 31.7564 23.7301C32.0275 23.7856 32.4611 23.8411 32.5696 23.9521C32.6238 24.0632 32.5696 24.5073 32.5154 24.7849C32.4069 25.229 32.3527 25.7287 32.4611 26.1728C32.5696 26.617 32.949 26.8946 33.2743 27.2277C33.4911 27.4497 33.8164 27.7273 33.8164 27.8939C33.8164 28.0604 33.4369 28.3935 33.2201 28.5601Z" fill="#FF3100"/>
<path d="M33.9248 26.4504L40.5985 19.0032L40.3165 18.7505L40.0163 18.5199L33.9248 26.4504ZM33.4369 25.8952L23.9279 28.9902L24.1441 29.6546L24.4506 30.2824L33.4369 25.8952ZM33.4911 25.0625L23.6765 23.1459L23.6463 23.3006L23.6209 23.4562L33.4911 25.0625ZM33.3827 23.3414L42.011 18.2865L41.7085 17.7701L41.3465 17.2934L33.3827 23.3414ZM31.8106 22.6752L29.804 32.4718L29.8919 32.4898L29.98 32.5062L31.8106 22.6752ZM30.6723 21.8425L21.4988 25.8234L21.5879 26.0286L21.686 26.2297L30.6723 21.8425ZM29.5881 20.5101L33.0781 11.1388L32.6837 10.9919L32.2783 10.8787L29.5881 20.5101ZM28.0161 20.8987L33.2515 29.4187L33.3298 29.3706L33.4072 29.321L28.0161 20.8987ZM26.4982 20.8987L31.7337 12.3787L31.59 12.2904L31.4435 12.2071L26.4982 20.8987ZM24.9262 20.5101L28.4162 29.8813L28.5676 29.8249L28.717 29.7637L24.9262 20.5101ZM23.4083 22.5087L17.7696 14.2501L16.9483 14.8109L16.2534 15.5225L23.4083 22.5087ZM22.6494 22.6752V12.6752H22.1387L21.6306 12.7273L22.6494 22.6752ZM21.0774 23.3414L13.1136 17.2934L12.8944 17.5822L12.6966 17.886L21.0774 23.3414ZM20.5353 26.3949L13.3804 19.4087L13.1482 19.6465L12.9323 19.8992L20.5353 26.3949ZM20.5895 29.3928L13.9158 36.8401L14.1977 37.0928L14.498 37.3234L20.5895 29.3928ZM21.0774 29.948L30.5864 26.8531L30.3702 26.1887L30.0636 25.5608L21.0774 29.948ZM21.0232 30.7808L30.8378 32.6974L30.868 32.5427L30.8933 32.387L21.0232 30.7808ZM21.1316 32.5018L12.5033 37.5567L12.8058 38.0732L13.1678 38.5498L21.1316 32.5018ZM22.7036 33.168L20.873 42.9991L21.7805 43.168H22.7036V33.168ZM23.2457 33.2791H33.2457V26.1262L26.4765 23.8153L23.2457 33.2791ZM23.842 38.8863L19.8229 48.0431L20.2106 48.2133L20.6113 48.3501L23.842 38.8863ZM24.9804 38.7753L18.9187 30.8219L18.9038 30.8333L18.8889 30.8448L24.9804 38.7753ZM27.3114 36.9987L33.3731 29.0454L27.3114 24.4254L21.2496 29.0454L27.3114 36.9987ZM29.6423 38.7753L36.1341 31.1689L35.9238 30.9895L35.704 30.822L29.6423 38.7753ZM31.377 33.2236L28.1462 23.7598L21.377 26.0707V33.2236H31.377ZM31.9191 33.1125L30.9002 23.1646L29.7667 23.2806L28.6883 23.6488L31.9191 33.1125ZM33.5995 30.7253L43.4456 28.9773L43.4306 28.8928L43.4141 28.8086L33.5995 30.7253ZM34.0332 29.3373L27.3595 21.8901L27.1112 22.1126L26.8783 22.3511L34.0332 29.3373ZM34.9547 27.8384H44.9547V26.8711L44.7693 25.9217L34.9547 27.8384ZM27.2571 35.5553L33.3254 27.6069L27.3315 23.0308L21.2837 27.5355L27.2571 35.5553ZM24.2757 37.776H14.2757V57.6934L30.2491 45.7958L24.2757 37.776ZM24.2757 34.778L32.3436 28.8697L14.2757 4.19736V34.778H24.2757ZM24.9262 35.2777L21.1353 44.5313L21.6747 44.7523L22.236 44.9091L24.9262 35.2777ZM26.4982 34.8891L21.2628 26.3691L21.1845 26.4172L21.1071 26.4667L26.4982 34.8891ZM28.0161 34.8891L22.7806 43.4091L22.8723 43.4654L22.9652 43.5197L28.0161 34.8891ZM29.6423 35.2777L32.8731 44.7414L33.1563 44.6448L33.4331 44.5313L29.6423 35.2777ZM30.2386 34.8336H40.2386V1.14107L21.8578 29.3781L30.2386 34.8336ZM30.2386 37.8315L24.1704 45.7799L40.2386 58.0473V37.8315H30.2386ZM33.2201 28.5601L27.1285 20.6296L26.5632 21.0638L26.0651 21.5739L33.2201 28.5601ZM32.4611 31.0029L42.2758 29.0862L42.2311 28.8577L42.1759 28.6314L32.4611 31.0029ZM32.5154 31.8356L25.3604 24.8494L24.2355 26.0015L23.5291 27.4484L32.5154 31.8356ZM31.7022 32.0577L32.9721 41.9767L33.3427 41.9293L33.7089 41.8543L31.7022 32.0577ZM29.6423 33.5567L20.9096 28.6842L20.5764 29.2815L20.3276 29.9186L29.6423 33.5567ZM28.5039 33.9453L35.6589 26.9591L34.7176 25.9951L33.5548 25.3146L28.5039 33.9453ZM25.9019 33.9453L30.4598 42.8461L30.7101 42.718L30.9528 42.5759L25.9019 33.9453ZM25.1972 34.2784L20.6393 43.1793L22.7857 44.2784H25.1972V34.2784ZM24.8178 33.5011L15.4275 36.9395L15.4642 37.0397L15.503 37.1392L24.8178 33.5011ZM22.7578 32.0022L20.7512 41.7988L21.1861 41.8879L21.6272 41.938L22.7578 32.0022ZM21.9447 31.7801L12.9585 36.1673L13.6649 37.6142L14.7898 38.7663L21.9447 31.7801ZM21.9989 30.9473L12.2842 28.5759L12.229 28.8021L12.1843 29.0307L21.9989 30.9473ZM21.9989 24.7294H11.9989V25.9322L12.2842 27.1008L21.9989 24.7294ZM21.9989 24.0077L29.1538 30.9939L30.2788 29.8418L30.9852 28.3948L21.9989 24.0077ZM22.8121 23.7856L21.5422 13.8665L21.1715 13.914L20.8054 13.989L22.8121 23.7856ZM24.872 22.2866L33.6046 27.159L34.3811 25.7674L34.6866 24.2032L24.872 22.2866ZM25.2514 21.5649L28.4822 31.0286L29.1661 30.7951L29.8093 30.4658L25.2514 21.5649ZM25.9561 21.898L18.8012 28.8842L19.7425 29.8482L20.9052 30.5287L25.9561 21.898ZM28.5581 21.8425L24.0002 12.9416L23.7499 13.0698L23.5072 13.2118L28.5581 21.8425ZM29.2629 21.5094L33.8208 12.6085L31.6743 11.5094H29.2629V21.5094ZM29.6965 22.2311L39.0868 18.7928L39.0501 18.6925L39.0113 18.5931L29.6965 22.2311ZM31.7564 23.7301L33.7631 13.9335L33.3282 13.8444L32.8871 13.7942L31.7564 23.7301ZM32.5696 23.9521L41.5558 19.565L40.8494 18.118L39.7245 16.9659L32.5696 23.9521ZM32.5154 24.7849L42.2301 27.1563L42.2853 26.9301L42.33 26.7015L32.5154 24.7849ZM40.0163 18.5199C40.6562 19.0114 41.0597 19.4633 41.2534 19.6923C41.375 19.8359 41.5146 20.0119 41.6656 20.225C41.7589 20.3567 42.0901 20.8258 42.4231 21.5081L24.4506 30.2824C25.0313 31.4718 25.7443 32.3258 25.9863 32.6118C26.3562 33.0489 26.9765 33.7229 27.8332 34.3809L40.0163 18.5199ZM42.9459 22.8003C43.3479 24.0353 43.3992 25.0465 43.4109 25.4588C43.4247 25.9466 43.3947 26.3137 43.3804 26.4673C43.3558 26.7312 43.3192 26.9274 43.3613 26.6687L23.6209 23.4562C23.6088 23.5307 23.518 24.0599 23.4663 24.6154C23.4515 24.7743 23.2008 26.7561 23.9279 28.9902L42.9459 22.8003ZM43.3057 26.9791C43.3203 26.9044 44.5062 22.5456 42.011 18.2865L24.7544 28.3964C23.7969 26.762 23.5995 25.19 23.5995 24.202C23.5995 23.3963 23.7453 22.7934 23.6765 23.1459L43.3057 26.9791ZM41.3465 17.2934C39.5919 14.9831 37.3925 13.8924 35.8361 13.3744C35.1237 13.1373 34.5141 13.0087 34.1825 12.9435C34.0107 12.9098 33.8578 12.8827 33.777 12.8684C33.6702 12.8494 33.6592 12.8476 33.6413 12.8442L29.98 32.5062C30.1112 32.5307 30.2493 32.5548 30.2906 32.5621C30.3581 32.5741 30.3526 32.5734 30.3264 32.5683C30.2862 32.5604 29.9612 32.4977 29.5198 32.3508C28.5055 32.0132 26.794 31.2001 25.4189 29.3894L41.3465 17.2934ZM33.8173 12.8786C33.3539 12.7837 32.9616 12.7349 32.8487 12.7206C32.5955 12.6885 32.7635 12.7102 32.8179 12.7181C32.8837 12.7278 33.3921 12.7981 34.0458 12.9938C34.3929 13.0977 34.9536 13.2869 35.6081 13.6171C36.2448 13.9382 37.2298 14.5221 38.2066 15.5225L23.8968 29.4949C24.9007 30.5231 25.9214 31.1312 26.6006 31.4738C27.2976 31.8254 27.9079 32.0333 28.31 32.1537C29.0739 32.3823 29.7144 32.477 29.9225 32.5074C30.1192 32.5362 30.4396 32.5752 30.3372 32.5622C30.3358 32.5621 30.3228 32.5604 30.3024 32.5576C30.2819 32.5549 30.2493 32.5503 30.2078 32.544C30.1302 32.5323 29.9873 32.5094 29.804 32.4718L33.8173 12.8786ZM38.2066 15.5225C38.6004 15.9258 38.8758 16.2789 39.0263 16.4807C39.1894 16.6995 39.3103 16.8823 39.3857 17.0001C39.5314 17.2278 39.624 17.3974 39.652 17.449C39.7038 17.5446 39.7294 17.6005 39.6585 17.4553L21.686 26.2297C21.7235 26.3065 21.8846 26.64 22.072 26.9854C22.1677 27.1619 22.3281 27.4495 22.5382 27.7779C22.6827 28.0038 23.1489 28.7289 23.8968 29.4949L38.2066 15.5225ZM39.8457 17.8615C39.7837 17.7186 39.3015 16.5372 38.4746 15.3516C37.5559 14.0343 35.8624 12.1757 33.0781 11.1388L26.0981 29.8813C23.9101 29.0664 22.6503 27.6242 22.0703 26.7927C21.5823 26.0929 21.344 25.4667 21.4988 25.8234L39.8457 17.8615ZM32.2783 10.8787C27.1278 9.44009 23.1993 12.1087 22.625 12.4763L33.4072 29.321C33.3846 29.3355 32.7479 29.7599 31.7466 30.0755C30.6173 30.4313 28.8796 30.6949 26.8979 30.1414L32.2783 10.8787ZM22.7806 12.3787C22.8552 12.3328 23.0702 12.2026 23.4104 12.0458C23.5788 11.9681 23.9222 11.8168 24.3906 11.6687C24.6321 11.5923 24.9796 11.4935 25.4087 11.4097C25.8197 11.3294 26.4616 11.2318 27.2571 11.2318V31.2318C29.7618 31.2318 31.6835 30.2548 31.7815 30.2096C32.3928 29.9279 32.9059 29.6311 33.2515 29.4187L22.7806 12.3787ZM27.2571 11.2318C28.0527 11.2318 28.6946 11.3294 29.1056 11.4097C29.5346 11.4935 29.8822 11.5923 30.1236 11.6687C30.5921 11.8168 30.9354 11.9681 31.1039 12.0458C31.4441 12.2026 31.6591 12.3328 31.7337 12.3787L21.2628 29.4187C21.6084 29.6311 22.1215 29.9279 22.7328 30.2096C22.8308 30.2548 24.7525 31.2318 27.2571 31.2318V11.2318ZM31.4435 12.2071C31.435 12.2022 31.0866 12.0003 30.7522 11.8256C30.3839 11.6333 29.7576 11.3244 28.9633 11.0533C27.3159 10.4909 24.3947 9.92121 21.1353 11.2564L28.717 29.7637C25.9998 30.8768 23.6207 30.3627 22.5018 29.9807C21.9717 29.7998 21.6063 29.6124 21.4938 29.5536C21.4152 29.5126 21.3176 29.4564 21.5529 29.5903L31.4435 12.2071ZM21.4362 11.1388C16.2896 13.0555 14.7055 17.7481 14.5273 18.2044L33.1568 25.4805C33.2095 25.3454 32.964 26.0492 32.365 26.8835C31.6518 27.8768 30.3786 29.1504 28.4162 29.8813L21.4362 11.1388ZM14.5273 18.2044C14.661 17.8619 14.8665 17.4112 15.1915 16.8968C15.3582 16.6329 15.6121 16.2638 15.9696 15.8509C16.3066 15.4617 16.8961 14.8465 17.7696 14.2501L29.0471 30.7673C30.7836 29.5817 31.739 28.15 32.0996 27.5793C32.5736 26.829 32.9146 26.1006 33.1568 25.4805L14.5273 18.2044ZM16.2534 15.5225C17.5641 14.1801 18.9172 13.5662 19.4989 13.3279C20.191 13.0444 20.7667 12.906 21.1036 12.837C21.7788 12.6987 22.3113 12.6752 22.6494 12.6752V32.6752C23.3128 32.6752 24.1705 32.624 25.1168 32.4302C25.5892 32.3335 26.2869 32.1603 27.0806 31.8352C27.764 31.5552 29.1983 30.8928 30.5633 29.4949L16.2534 15.5225ZM21.6306 12.7273C21.3648 12.7545 16.3908 12.9782 13.1136 17.2934L29.0412 29.3894C27.709 31.1435 26.0777 31.9405 25.1035 32.2812C24.2274 32.5876 23.5611 32.6342 23.6682 32.6232L21.6306 12.7273ZM12.6966 17.886C11.1638 20.2407 10.8606 22.6002 10.8606 24.1534C10.8606 25.5412 11.1179 26.7369 11.1544 26.9236L30.7836 23.0903C30.7116 22.7218 30.8606 23.3346 30.8606 24.1534C30.8606 25.1375 30.6658 26.9418 29.4582 28.7969L12.6966 17.886ZM11.1544 26.9236C11.143 26.8652 11.1038 26.6636 11.0759 26.3492C11.0621 26.1935 11.037 25.8589 11.0487 25.4146C11.0547 25.1853 11.0723 24.8529 11.1257 24.4511C11.1764 24.0687 11.2801 23.4639 11.5142 22.7448L30.5322 28.9347C31.2639 26.6865 31.0041 24.6542 30.9976 24.5808C30.9425 23.961 30.8492 23.4263 30.7836 23.0903L11.1544 26.9236ZM11.5142 22.7448C11.7771 21.9369 12.0975 21.3119 12.3365 20.8986C12.5814 20.4752 12.8151 20.1467 12.9832 19.9253C13.3035 19.5035 13.5795 19.2186 13.665 19.1311C13.7609 19.0329 13.8356 18.9631 13.7717 19.024C13.7666 19.0288 13.5731 19.2113 13.3804 19.4087L27.6902 33.3811C27.5788 33.4952 27.4801 33.5875 27.5734 33.4986C27.6077 33.4659 27.7841 33.2989 27.9748 33.1035C28.1552 32.9188 28.5192 32.5369 28.9107 32.0213C29.2348 31.5945 30.0179 30.5149 30.5322 28.9347L11.5142 22.7448ZM12.9323 19.8992C12.9544 19.8734 12.9621 19.8651 12.9162 19.9168C12.8889 19.9475 12.7935 20.0543 12.703 20.1581C12.5211 20.3667 12.149 20.7996 11.7572 21.3614C10.9652 22.4969 9.66797 24.758 9.66797 27.8939H29.668C29.668 30.419 28.6147 32.1527 28.1615 32.8025C28.0425 32.9731 27.9421 33.1017 27.8795 33.1794C27.8473 33.2193 27.8215 33.2502 27.8046 33.2701C27.7879 33.2899 27.7775 33.3019 27.7764 33.3031C27.7757 33.304 27.7803 33.2987 27.7954 33.2816C27.8155 33.2589 27.826 33.2473 27.862 33.2067C27.9153 33.1468 28.0214 33.0275 28.1383 32.8906L12.9323 19.8992ZM9.66797 27.8939C9.66797 30.9606 10.9063 33.2312 11.7938 34.4897C12.6512 35.7056 13.5866 36.5451 13.9158 36.8401L27.2632 21.9456C27.1588 21.852 27.6334 22.2473 28.1384 22.9636C28.6736 23.7224 29.668 25.4378 29.668 27.8939H9.66797ZM14.498 37.3234C13.8581 36.8318 13.4546 36.38 13.2609 36.151C13.1393 36.0074 12.9997 35.8314 12.8487 35.6183C12.7554 35.4866 12.4242 35.0175 12.0911 34.3352L30.0636 25.5608C29.483 24.3715 28.77 23.5175 28.528 23.2315C28.1581 22.7943 27.5378 22.1204 26.681 21.4623L14.498 37.3234ZM11.5684 33.043C11.1664 31.808 11.1151 30.7967 11.1034 30.3845C11.0896 29.8967 11.1196 29.5296 11.1339 29.376C11.1584 29.112 11.1951 28.9159 11.153 29.1745L30.8933 32.387C30.9055 32.3125 30.9963 31.7833 31.048 31.2279C31.0628 31.0689 31.3135 29.0872 30.5864 26.8531L11.5684 33.043ZM11.2086 28.8641C11.194 28.9388 10.0081 33.2977 12.5033 37.5567L29.7599 27.4469C30.7174 29.0813 30.9148 30.6533 30.9148 31.6413C30.9148 32.447 30.769 33.0499 30.8378 32.6974L11.2086 28.8641ZM13.1678 38.5498C14.9224 40.8601 17.1218 41.9508 18.6782 42.4689C19.3906 42.706 20.0002 42.8346 20.3317 42.8997C20.5036 42.9335 20.6565 42.9606 20.7372 42.9749C20.8441 42.9938 20.8551 42.9957 20.873 42.9991L24.5343 23.337C24.4031 23.3126 24.265 23.2885 24.2237 23.2811C24.1562 23.2692 24.1617 23.2698 24.1879 23.275C24.228 23.2829 24.553 23.3455 24.9944 23.4925C26.0088 23.8301 27.7203 24.6432 29.0954 26.4538L13.1678 38.5498ZM22.7036 43.168C22.1986 43.168 21.7896 43.1267 21.518 43.0906C21.2356 43.0531 21.0027 43.0079 20.8311 42.9703C20.4999 42.8976 20.2287 42.8158 20.015 42.7428L26.4765 23.8153C26.0351 23.6647 24.5536 23.168 22.7036 23.168V43.168ZM13.2457 33.2791V37.887H33.2457V33.2791H13.2457ZM13.2457 37.887C13.2457 41.4966 15.1268 45.9819 19.8229 48.0431L27.8611 29.7295C31.7984 31.4577 33.2457 35.1657 33.2457 37.887H13.2457ZM20.6113 48.3501C20.624 48.3544 21.0792 48.5154 21.6056 48.6502C22.1716 48.7951 23.1319 48.9974 24.3299 48.9974V28.9974C25.3653 28.9974 26.1629 29.1719 26.5663 29.2752C26.9301 29.3683 27.2226 29.4738 27.0728 29.4226L20.6113 48.3501ZM24.3299 48.9974C26.4933 48.9974 28.9149 48.3626 31.0719 46.7058L18.8889 30.8448C19.6576 30.2543 20.5721 29.7559 21.607 29.4247C22.6302 29.0972 23.5695 28.9974 24.3299 28.9974V48.9974ZM31.0421 46.7286L33.3731 44.9521L21.2496 29.0454L18.9187 30.8219L31.0421 46.7286ZM21.2496 44.9521L23.5806 46.7286L35.704 30.822L33.3731 29.0454L21.2496 44.9521ZM23.1506 46.3817C27.2455 49.8766 32.0687 49.2419 34.7998 48.0431L26.7616 29.7295C28.7338 28.8639 32.6896 28.2292 36.1341 31.1689L23.1506 46.3817ZM34.7998 48.0431C39.4959 45.9819 41.377 41.4966 41.377 37.887H21.377C21.377 35.1657 22.8243 31.4577 26.7616 29.7295L34.7998 48.0431ZM41.377 37.887V33.2236H21.377V37.887H41.377ZM34.6077 42.6873C34.3106 42.7887 34.0526 42.8601 33.8527 42.9098C33.6525 42.9596 33.4862 42.9936 33.3708 43.0154C33.2556 43.0373 33.1675 43.0515 33.1267 43.0579C33.0907 43.0635 33.0632 43.0674 33.0957 43.0627C33.1106 43.0605 33.1855 43.0496 33.2685 43.0366C33.3564 43.0228 33.4911 43.0009 33.652 42.9703C33.8132 42.9398 34.0243 42.8962 34.2681 42.8356C34.5117 42.7751 34.812 42.6916 35.1498 42.5763L28.6883 23.6488C28.9855 23.5473 29.2434 23.476 29.4434 23.4263C29.6436 23.3765 29.8098 23.3425 29.9253 23.3206C30.0404 23.2988 30.1285 23.2846 30.1694 23.2782C30.2054 23.2726 30.2329 23.2686 30.2004 23.2734C30.1854 23.2756 30.1105 23.2864 30.0275 23.2995C29.9396 23.3132 29.8049 23.3352 29.6441 23.3657C29.4829 23.3963 29.2718 23.4398 29.0279 23.5005C28.7844 23.561 28.484 23.6445 28.1462 23.7598L34.6077 42.6873ZM32.9379 43.0605C33.2037 43.0333 38.1777 42.8096 41.4549 38.4943L25.5273 26.3983C26.8595 24.6442 28.4908 23.8472 29.465 23.5065C30.3411 23.2002 31.0074 23.1536 30.9002 23.1646L32.9379 43.0605ZM41.4549 38.4943C43.435 35.887 43.7661 33.1385 43.7256 31.395C43.7069 30.591 43.6097 29.9309 43.5518 29.5753C43.5215 29.3887 43.4915 29.2256 43.4747 29.135C43.4521 29.0127 43.4507 29.0062 43.4456 28.9773L23.7535 32.4732C23.7754 32.597 23.8029 32.7431 23.8084 32.7731C23.8198 32.8347 23.8173 32.8235 23.8115 32.7878C23.8028 32.7341 23.7429 32.3724 23.731 31.8598C23.704 30.6993 23.9267 28.506 25.5273 26.3983L41.4549 38.4943ZM43.4141 28.8086C43.4255 28.867 43.4647 29.0686 43.4926 29.3831C43.5064 29.5387 43.5315 29.8733 43.5198 30.3177C43.5138 30.5469 43.4962 30.8794 43.4428 31.2811C43.3921 31.6635 43.2884 32.2683 43.0543 32.9874L24.0363 26.7976C23.3046 29.0458 23.5644 31.078 23.5709 31.1514C23.6259 31.7713 23.7193 32.306 23.7849 32.6419L43.4141 28.8086ZM43.0543 32.9874C42.7914 33.7954 42.471 34.4204 42.232 34.8336C41.9871 35.257 41.7534 35.5856 41.5853 35.8069C41.2649 36.2288 40.989 36.5136 40.9035 36.6011C40.8076 36.6993 40.7329 36.7691 40.7968 36.7082C40.8018 36.7034 40.9954 36.5209 41.1881 36.3235L26.8783 22.3511C26.9897 22.237 27.0884 22.1447 26.9951 22.2337C26.9608 22.2664 26.7844 22.4333 26.5937 22.6287C26.4133 22.8134 26.0493 23.1954 25.6578 23.7109C25.3336 24.1377 24.5506 25.2173 24.0363 26.7976L43.0543 32.9874ZM40.7069 36.7846C40.811 36.6913 41.8505 35.8054 42.7514 34.5634C43.7994 33.1185 44.9547 30.8291 44.9547 27.8384H24.9547C24.9547 25.5138 25.8661 23.7796 26.5618 22.8205C27.1103 22.0642 27.689 21.5948 27.3595 21.8901L40.7069 36.7846ZM44.7693 25.9217C44.272 23.3752 43.0183 21.6147 42.2623 20.7022C41.5264 19.8139 40.7443 19.1339 40.5985 19.0032L27.2511 33.8977C27.5389 34.1556 27.2176 33.892 26.8612 33.4617C26.4846 33.0072 25.529 31.7463 25.1401 29.755L44.7693 25.9217ZM21.2837 27.5355L18.3022 29.7562L30.2491 45.7958L33.2306 43.5751L21.2837 27.5355ZM34.2757 37.776V34.778H14.2757V37.776H34.2757ZM16.2077 40.6863C17.5308 42.4931 19.2714 43.7678 21.1353 44.5313L28.717 26.0241C30.0388 26.5656 31.3458 27.5071 32.3436 28.8697L16.2077 40.6863ZM22.236 44.9091C27.3865 46.3477 31.315 43.6791 31.8893 43.3114L21.1071 26.4667C21.1297 26.4523 21.7664 26.0278 22.7677 25.7123C23.897 25.3564 25.6346 25.0928 27.6163 25.6463L22.236 44.9091ZM31.7337 43.4091C31.6591 43.4549 31.4441 43.5852 31.1039 43.742C30.9354 43.8196 30.5921 43.9709 30.1237 44.1191C29.8822 44.1955 29.5346 44.2943 29.1056 44.3781C28.6946 44.4583 28.0527 44.556 27.2571 44.556V24.556C24.7525 24.556 22.8308 25.533 22.7328 25.5782C22.1215 25.8599 21.6084 26.1567 21.2628 26.3691L31.7337 43.4091ZM27.2571 44.556C26.4616 44.556 25.8197 44.4583 25.4087 44.3781C24.9796 44.2943 24.6321 44.1955 24.3906 44.1191C23.9222 43.9709 23.5788 43.8196 23.4104 43.742C23.0702 43.5852 22.8552 43.4549 22.7806 43.4091L33.2515 26.3691C32.9059 26.1567 32.3928 25.8599 31.7815 25.5782C31.6835 25.533 29.7618 24.556 27.2571 24.556V44.556ZM22.9652 43.5197C23.2571 43.6906 25.8235 45.3332 29.2629 45.3332V25.3332C30.721 25.3332 31.7991 25.6979 32.3045 25.8983C32.8103 26.0988 33.1276 26.2939 33.067 26.2584L22.9652 43.5197ZM29.2629 45.3332C29.6722 45.3332 31.1168 45.341 32.8731 44.7414L26.4116 25.814C27.0113 25.6092 27.6477 25.4648 28.3016 25.3904C28.8792 25.3247 29.3589 25.3332 29.2629 25.3332V45.3332ZM33.4331 44.5313C34.9299 43.9182 37.0707 42.6682 38.6194 40.289L21.8578 29.3781C22.5909 28.2518 23.4121 27.519 23.9961 27.0805C24.6189 26.6127 25.2494 26.2707 25.8515 26.0241L33.4331 44.5313ZM20.2386 34.8336V37.8315H40.2386V34.8336H20.2386ZM36.3068 29.8831L33.3254 27.6069L21.1889 43.5037L24.1704 45.7799L36.3068 29.8831ZM26.0651 21.5739C26.0693 21.5696 26.0648 21.5743 26.0275 21.6116C26.0023 21.6368 25.9305 21.7084 25.8616 21.7782C25.7209 21.9208 25.4506 22.1977 25.1495 22.5501C24.5074 23.3017 23.6302 24.5008 23.0166 26.1766L41.7972 33.0533C41.3463 34.2849 40.713 35.1231 40.3555 35.5416C40.1967 35.7275 40.0789 35.8448 40.0957 35.8278C40.1056 35.8177 40.1139 35.8095 40.1693 35.7541C40.2127 35.7107 40.2895 35.6338 40.375 35.5463L26.0651 21.5739ZM23.0166 26.1766C21.6535 29.8994 22.7436 33.363 22.7464 33.3743L42.1759 28.6314C42.1224 28.4122 42.2431 28.8422 42.2955 29.4505C42.3522 30.1089 42.3822 31.4558 41.7972 33.0533L23.0166 26.1766ZM22.6465 32.9195C22.7582 33.4915 22.6648 33.0233 22.6294 32.7451C22.6077 32.5751 22.5224 31.9046 22.5838 31.0117C22.6155 30.55 22.7033 29.7483 23.0039 28.7891C23.297 27.8538 23.9366 26.3076 25.3604 24.8494L39.6703 38.8218C41.1212 37.3359 41.7811 35.7515 42.0888 34.7696C42.404 33.7637 42.5007 32.9069 42.5367 32.3837C42.6066 31.3676 42.5111 30.5479 42.4691 30.2183C42.393 29.6209 42.2183 28.7918 42.2758 29.0862L22.6465 32.9195ZM23.5291 27.4484C24.6782 25.0948 26.4082 23.8875 27.0679 23.4633C27.8656 22.9504 28.5559 22.6727 28.8798 22.5508C29.5357 22.3038 30.0466 22.1997 30.1034 22.1876C30.23 22.1606 30.3143 22.1471 30.2208 22.1634C30.2172 22.164 29.9473 22.2095 29.6956 22.2611L33.7089 41.8543C33.5926 41.8781 33.4854 41.8959 33.6513 41.867C33.7271 41.8538 33.9876 41.809 34.2768 41.7473C34.4962 41.7005 35.1562 41.5583 35.9273 41.2679C36.3088 41.1243 37.0482 40.8236 37.884 40.2862C38.5819 39.8375 40.339 38.6042 41.5016 36.2228L23.5291 27.4484ZM30.4324 22.1386C30.3835 22.1449 29.5244 22.2393 28.6218 22.4634C27.6364 22.708 26.0815 23.2162 24.497 24.3753L36.3054 40.5173C35.1004 41.3988 33.9792 41.7404 33.441 41.8741C32.9856 41.9871 32.5873 42.026 32.9721 41.9767L30.4324 22.1386ZM24.497 24.3753C22.7815 25.6303 21.8215 27.0798 21.3588 27.8603C21.1327 28.2416 20.9605 28.5788 20.9032 28.6906C20.8048 28.8822 20.8566 28.7792 20.9096 28.6842L38.375 38.4291C38.5364 38.1398 38.6899 37.8356 38.6949 37.8259C38.7408 37.7365 38.6737 37.8724 38.5628 38.0594C38.3305 38.4513 37.6415 39.5399 36.3054 40.5173L24.497 24.3753ZM20.3276 29.9186C20.479 29.5309 20.6336 29.2251 20.7972 28.9459C20.8784 28.8072 21.0701 28.4889 21.3728 28.0943C21.5235 27.8979 21.7984 27.5555 22.1904 27.1643C22.4969 26.8584 23.3342 26.0517 24.6507 25.3775L33.7666 43.1793C35.9851 42.0432 37.1925 40.3313 37.241 40.2681C37.6182 39.7764 37.8912 39.3332 38.0538 39.0557C38.38 38.4989 38.6972 37.86 38.9571 37.1947L20.3276 29.9186ZM24.6507 25.3775C26.8746 24.2387 28.8814 24.2622 29.6342 24.2984C30.5611 24.343 31.278 24.5108 31.6568 24.612C32.4311 24.8189 32.991 25.0758 33.26 25.207C33.627 25.386 34.6133 25.8883 35.6589 26.9591L21.349 40.9315C22.5572 42.1688 23.8417 42.8654 24.4932 43.1832C24.9046 43.3838 25.6034 43.6962 26.4945 43.9343C26.9317 44.0511 27.7016 44.2286 28.6736 44.2753C29.4716 44.3137 31.5156 44.3319 33.7666 43.1793L24.6507 25.3775ZM33.5548 25.3146C33.4887 25.2759 33.5479 25.3103 33.4221 25.2365C33.3519 25.1953 33.2434 25.1319 33.117 25.0607C32.8695 24.9213 32.4735 24.7061 31.983 24.4864C31.0246 24.0569 29.3508 23.4456 27.2029 23.4456V43.4456C25.5429 43.4456 24.3299 42.9731 23.8051 42.738C23.5315 42.6154 23.3455 42.5112 23.3014 42.4864C23.2766 42.4724 23.268 42.4671 23.296 42.4836C23.3107 42.4922 23.3251 42.5007 23.3535 42.5174C23.3779 42.5318 23.4141 42.5532 23.453 42.5759L33.5548 25.3146ZM27.2029 23.4456C25.0551 23.4456 23.3812 24.0569 22.4228 24.4864C21.9324 24.7061 21.5363 24.9213 21.2889 25.0607C21.1625 25.1319 21.054 25.1953 20.9837 25.2365C20.858 25.3103 20.9172 25.2759 20.851 25.3146L30.9528 42.5759C30.9918 42.5532 31.0279 42.5318 31.0524 42.5174C31.0807 42.5007 31.0951 42.4922 31.1098 42.4836C31.1378 42.4671 31.1293 42.4724 31.1045 42.4864C31.0603 42.5112 30.8743 42.6154 30.6007 42.738C30.076 42.9731 28.8629 43.4456 27.2029 43.4456V23.4456ZM21.344 25.0444C21.1791 25.1289 21.01 25.2204 20.9799 25.2366C20.9031 25.2779 20.9165 25.2703 20.951 25.2526C20.9581 25.249 21.1695 25.1389 21.4812 25.0092C21.6358 24.9449 21.9647 24.8126 22.4026 24.6825C22.6283 24.6155 22.9609 24.5256 23.3714 24.4483C23.758 24.3756 24.3981 24.2784 25.1972 24.2784V44.2784C26.0099 44.2784 26.6657 44.1794 27.0699 44.1034C27.4979 44.0229 27.85 43.9281 28.0969 43.8548C28.5771 43.7121 28.9551 43.5616 29.164 43.4747C29.5841 43.2999 29.9242 43.1274 30.0668 43.0543C30.2368 42.9673 30.3925 42.8833 30.4512 42.8518C30.5567 42.795 30.5164 42.8172 30.4598 42.8461L21.344 25.0444ZM29.7551 25.3775C31.4874 26.2646 32.4955 27.4304 32.8292 27.8299C33.2674 28.3546 33.5516 28.8091 33.6882 29.0374C33.9631 29.4967 34.1202 29.8544 34.1477 29.9164C34.2011 30.0367 34.2632 30.1977 34.1325 29.8631L15.503 37.1392C15.5097 37.1563 15.5149 37.1697 15.5357 37.2235C15.5525 37.2669 15.5776 37.3317 15.606 37.4034C15.6582 37.5358 15.7507 37.7671 15.8673 38.0297C15.9626 38.2444 16.1874 38.7408 16.5267 39.3077C16.6955 39.5898 17.011 40.0903 17.4793 40.651C17.843 41.0865 18.88 42.2783 20.6393 43.1793L29.7551 25.3775ZM34.2081 30.0628C33.7288 28.7539 32.6153 26.2601 29.963 24.3198L18.1547 40.4618C16.2613 39.0767 15.5815 37.3601 15.4275 36.9395L34.2081 30.0628ZM29.963 24.3198C27.1399 22.2546 24.0545 22.0852 23.8885 22.0663L21.6272 41.938C21.9494 41.9747 21.5167 41.941 20.9686 41.8007C20.2786 41.624 19.234 41.2513 18.1547 40.4618L29.963 24.3198ZM24.7645 22.2056C24.6415 22.1804 24.5352 22.1604 24.4728 22.1489C24.4244 22.1399 24.3384 22.1242 24.3344 22.1235C24.2621 22.1102 24.341 22.1237 24.4635 22.1509C24.5489 22.17 24.949 22.2583 25.4717 22.4468C25.7424 22.5444 26.199 22.723 26.7394 23.0138C27.2328 23.2795 28.158 23.8295 29.0996 24.7939L14.7898 38.7663C15.7585 39.7584 16.721 40.3345 17.26 40.6246C17.8459 40.94 18.3563 41.1416 18.6871 41.2609C19.3301 41.4928 19.8758 41.6192 20.1171 41.673C20.3954 41.7349 20.6404 41.7796 20.729 41.7958C20.8937 41.826 20.8164 41.8121 20.7512 41.7988L24.7645 22.2056ZM30.931 27.3929C31.56 28.6813 31.7493 29.7908 31.8121 30.1978C31.893 30.7213 31.9126 31.1389 31.9189 31.3672C31.9315 31.8246 31.9049 32.1589 31.8953 32.2722C31.8739 32.5248 31.8446 32.7051 31.8135 32.864L12.1843 29.0307C12.0991 29.4672 12.0156 30.0083 11.967 30.5802C11.9438 30.8531 11.9105 31.3366 11.9265 31.9171C11.928 31.9707 11.9008 34.0008 12.9585 36.1673L30.931 27.3929ZM31.7137 33.3188C31.9939 32.171 32.4213 29.8649 31.7679 27.188L12.3384 31.9308C12.1027 30.9652 12.0955 30.1724 12.1238 29.6799C12.1527 29.1767 12.2298 28.7985 12.2842 28.5759L31.7137 33.3188ZM31.7679 27.188C31.1689 24.734 29.8848 23.1095 29.1791 22.3211C28.8371 21.939 28.5244 21.6394 28.4198 21.5388C28.2374 21.3635 28.3315 21.4534 28.3949 21.5184L14.0851 35.4908C14.2193 35.6283 14.3364 35.7425 14.4126 35.8161C14.451 35.8533 14.4859 35.8868 14.5089 35.9088C14.5368 35.9355 14.5462 35.9445 14.5583 35.9561C14.6196 36.0151 14.4696 35.8752 14.2766 35.6596C13.8692 35.2043 12.829 33.9406 12.3384 31.9308L31.7679 27.188ZM28.3949 21.5184C28.2998 21.421 28.2168 21.3389 28.168 21.2909C28.1424 21.2657 28.1187 21.2425 28.1033 21.2274C28.085 21.2095 28.0768 21.2015 28.0685 21.1933C28.0181 21.1439 28.1166 21.2382 28.2507 21.3841C28.3494 21.4916 28.7497 21.927 29.1738 22.5893C29.396 22.9364 29.7336 23.5127 30.0327 24.2819C30.3246 25.0327 30.6979 26.268 30.6979 27.8384H10.6979C10.6979 29.4504 11.0815 30.7307 11.392 31.5294C11.7097 32.3466 12.0744 32.9737 12.3305 33.3737C12.8223 34.1419 13.3175 34.6917 13.5246 34.9172C13.7672 35.1811 13.9876 35.3968 14.0592 35.4671C14.1985 35.6038 14.1293 35.5361 14.0851 35.4908L28.3949 21.5184ZM30.6979 27.8384C30.6979 29.4087 30.3246 30.644 30.0327 31.3948C29.7336 32.164 29.396 32.7403 29.1738 33.0874C28.7497 33.7498 28.3494 34.1851 28.2507 34.2926C28.1166 34.4385 28.0181 34.5328 28.0685 34.4834C28.0768 34.4752 28.085 34.4672 28.1033 34.4493C28.1187 34.4342 28.1424 34.411 28.168 34.3859C28.2168 34.3378 28.2998 34.2558 28.3949 34.1584L14.0851 20.1859C14.1293 20.1406 14.1985 20.0729 14.0592 20.2096C13.9876 20.2799 13.7672 20.4956 13.5246 20.7596C13.3175 20.985 12.8223 21.5349 12.3305 22.303C12.0744 22.703 11.7097 23.3301 11.392 24.1473C11.0815 24.946 10.6979 26.2263 10.6979 27.8384H30.6979ZM28.3949 34.1584C28.3908 34.1626 28.3953 34.1579 28.4326 34.1206C28.4578 34.0954 28.5296 34.0238 28.5985 33.954C28.7392 33.8115 29.0094 33.5345 29.3105 33.1821C29.9527 32.4305 30.8298 31.2315 31.4434 29.5557L12.6628 22.679C13.1138 21.4473 13.7471 20.6091 14.1046 20.1906C14.2634 20.0048 14.3812 19.8874 14.3643 19.9045C14.3545 19.9145 14.3462 19.9227 14.2907 19.9782C14.2474 20.0216 14.1706 20.0984 14.0851 20.1859L28.3949 34.1584ZM31.4434 29.5557C32.8066 25.8329 31.7164 22.3692 31.7137 22.358L12.2842 27.1008C12.3377 27.32 12.217 26.89 12.1646 26.2817C12.1079 25.6233 12.0779 24.2764 12.6628 22.679L31.4434 29.5557ZM31.9989 24.7294C31.9989 24.2331 31.9622 23.8378 31.9475 23.687C31.9298 23.5053 31.9105 23.3529 31.9042 23.304C31.8792 23.1063 31.9019 23.278 31.9153 23.4218C31.9251 23.5275 31.9881 24.1566 31.9173 24.9899C31.8806 25.4226 31.7865 26.1937 31.4896 27.1192C31.2026 28.0134 30.5697 29.5438 29.1538 30.9939L14.844 17.0214C13.401 18.4993 12.7478 20.0679 12.446 21.0083C12.1342 21.9799 12.0309 22.8052 11.989 23.2978C11.9081 24.2508 11.9778 25.0221 12.0012 25.2736C12.0282 25.5631 12.0713 25.8841 12.0631 25.82C12.0631 25.8199 12.063 25.8189 12.0628 25.8171C12.0625 25.8153 12.0622 25.8125 12.0618 25.8089C12.0609 25.8019 12.0595 25.7903 12.0577 25.7752C12.0544 25.7472 12.0483 25.6935 12.0415 25.6232C12.0323 25.529 11.9989 25.1841 11.9989 24.7294H31.9989ZM30.9852 28.3948C29.8361 30.7484 28.1061 31.9558 27.4464 32.38C26.6487 32.8928 25.9584 33.1706 25.6345 33.2925C24.9785 33.5395 24.4676 33.6435 24.4109 33.6557C24.2843 33.6827 24.2 33.6962 24.2935 33.6799C24.2971 33.6793 24.5669 33.6338 24.8187 33.5822L20.8054 13.989C20.9216 13.9652 21.0289 13.9474 20.863 13.9763C20.7872 13.9895 20.5267 14.0342 20.2375 14.0959C20.0181 14.1428 19.3581 14.285 18.587 14.5753C18.2055 14.719 17.466 15.0197 16.6303 15.557C15.9324 16.0057 14.1753 17.2391 13.0127 19.6205L30.9852 28.3948ZM24.0819 33.7046C24.1308 33.6984 24.9899 33.604 25.8925 33.3799C26.8779 33.1352 28.4328 32.627 30.0173 31.4679L18.2089 15.326C19.4139 14.4445 20.5351 14.1028 21.0733 13.9692C21.5287 13.8561 21.927 13.8173 21.5422 13.8665L24.0819 33.7046ZM30.0173 31.4679C31.7328 30.2129 32.6928 28.7635 33.1555 27.9829C33.3816 27.6016 33.5537 27.2645 33.6111 27.1527C33.7095 26.9611 33.6577 27.064 33.6046 27.159L16.1393 17.4142C15.9779 17.7035 15.8244 18.0077 15.8194 18.0173C15.7735 18.1068 15.8406 17.9709 15.9515 17.7839C16.1838 17.392 16.8728 16.3034 18.2089 15.326L30.0173 31.4679ZM34.6866 24.2032C34.5522 24.8916 34.335 25.5585 34.0073 26.2297C33.8426 26.5669 33.5069 27.2021 32.932 27.9188C32.5127 28.4415 31.0914 30.1379 28.4822 31.0286L22.0207 12.1012C19.3302 13.0196 17.8275 14.7854 17.3303 15.4053C16.6775 16.2192 16.2672 16.9792 16.0348 17.4553C15.5716 18.4041 15.246 19.4041 15.0574 20.37L34.6866 24.2032ZM29.8093 30.4658C27.5855 31.6045 25.5787 31.5811 24.8259 31.5449C23.899 31.5003 23.182 31.3324 22.8033 31.2312C22.029 31.0244 21.4691 30.7675 21.2001 30.6363C20.8331 30.4573 19.8467 29.955 18.8012 28.8842L33.1111 14.9118C31.9029 13.6745 30.6184 12.9778 29.9669 12.6601C29.5555 12.4595 28.8567 12.147 27.9656 11.909C27.5283 11.7921 26.7584 11.6147 25.7864 11.568C24.9885 11.5296 22.9445 11.5114 20.6935 12.664L29.8093 30.4658ZM20.9052 30.5287C21.3752 30.8037 23.8526 32.3421 27.2571 32.3421V12.3421C28.5488 12.3421 29.554 12.6387 30.1512 12.8681C30.7071 13.0816 31.0636 13.3004 31.007 13.2673L20.9052 30.5287ZM27.2571 32.3421C29.405 32.3421 31.0789 31.7308 32.0373 31.3014C32.5277 31.0816 32.9237 30.8664 33.1712 30.7271C33.2976 30.6558 33.4061 30.5925 33.4764 30.5512C33.6021 30.4774 33.5429 30.5119 33.609 30.4731L23.5072 13.2118C23.4683 13.2346 23.4321 13.2559 23.4077 13.2703C23.3793 13.287 23.3649 13.2955 23.3503 13.3042C23.3222 13.3206 23.3308 13.3154 23.3556 13.3014C23.3997 13.2765 23.5857 13.1724 23.8593 13.0498C24.3841 12.8147 25.5972 12.3421 27.2571 12.3421V32.3421ZM33.1161 30.7433C33.281 30.6589 33.4501 30.5673 33.4801 30.5512C33.557 30.5099 33.5435 30.5175 33.5091 30.5352C33.5019 30.5388 33.2906 30.6489 32.9789 30.7786C32.8243 30.8429 32.4954 30.9752 32.0574 31.1053C31.8317 31.1723 31.4991 31.2622 31.0887 31.3394C30.7021 31.4122 30.062 31.5094 29.2629 31.5094V11.5094C28.4502 11.5094 27.7944 11.6083 27.3902 11.6844C26.9622 11.7649 26.6101 11.8597 26.3632 11.933C25.8829 12.0756 25.5049 12.2262 25.2961 12.313C24.876 12.4878 24.5359 12.6604 24.3932 12.7334C24.2233 12.8205 24.0675 12.9044 24.0088 12.936C23.9033 12.9927 23.9437 12.9706 24.0002 12.9416L33.1161 30.7433ZM24.7049 30.4102C23.3884 29.7361 22.5511 28.9294 22.2446 28.6235C21.8526 28.2323 21.5777 27.8899 21.427 27.6934C21.1243 27.2988 20.9326 26.9805 20.8514 26.8419C20.6878 26.5627 20.5332 26.2569 20.3818 25.8691L39.0113 18.5931C38.7514 17.9277 38.4342 17.2888 38.108 16.732C37.9455 16.4546 37.6725 16.0114 37.2952 15.5196C37.2467 15.4565 36.0393 13.7446 33.8208 12.6085L24.7049 30.4102ZM20.3062 25.6694C20.7855 26.9784 21.899 29.4722 24.5512 31.4124L36.3596 15.2705C38.253 16.6555 38.9328 18.3721 39.0868 18.7928L20.3062 25.6694ZM24.5512 31.4124C27.3743 33.4776 30.4598 33.647 30.6258 33.6659L32.8871 13.7942C32.5649 13.7575 32.9975 13.7912 33.5456 13.9315C34.2357 14.1082 35.2803 14.4809 36.3596 15.2705L24.5512 31.4124ZM29.7498 33.5267C29.8728 33.5519 29.979 33.5718 30.0415 33.5834C30.0899 33.5924 30.1759 33.608 30.1799 33.6088C30.2522 33.622 30.1732 33.6085 30.0508 33.5813C29.9654 33.5623 29.5653 33.4739 29.0426 33.2854C28.7719 33.1878 28.3153 33.0093 27.7749 32.7184C27.2814 32.4528 26.3563 31.9027 25.4146 30.9383L39.7245 16.9659C38.7557 15.9738 37.7933 15.3977 37.2543 15.1076C36.6684 14.7922 36.158 14.5907 35.8272 14.4714C35.1842 14.2395 34.6384 14.113 34.3972 14.0593C34.1189 13.9973 33.8739 13.9526 33.7853 13.9364C33.6206 13.9062 33.6979 13.9201 33.7631 13.9335L29.7498 33.5267ZM23.5833 28.3393C22.9543 27.0509 22.765 25.9414 22.7021 25.5344C22.6213 25.0109 22.6016 24.5934 22.5954 24.365C22.5828 23.9077 22.6093 23.5734 22.619 23.4601C22.6404 23.2075 22.6697 23.0272 22.7007 22.8683L42.33 26.7015C42.4152 26.265 42.4987 25.7239 42.5473 25.1521C42.5704 24.8791 42.6038 24.3956 42.5878 23.8151C42.5863 23.7615 42.6135 21.7315 41.5558 19.565L23.5833 28.3393ZM22.8006 22.4135C22.5204 23.5613 22.093 25.8674 22.7464 28.5443L42.1759 23.8014C42.4116 24.767 42.4188 25.5599 42.3905 26.0523C42.3616 26.5555 42.2844 26.9337 42.2301 27.1563L22.8006 22.4135ZM22.7464 28.5443C23.3454 30.9982 24.6295 32.6228 25.3352 33.4111C25.6772 33.7933 25.9898 34.0928 26.0945 34.1934C26.2768 34.3687 26.1827 34.2788 26.1194 34.2139L40.4292 20.2415C40.295 20.104 40.1778 19.9897 40.1017 19.9161C40.0632 19.8789 40.0284 19.8455 40.0054 19.8234C39.9774 19.7967 39.968 19.7877 39.956 19.7761C39.8946 19.7171 40.0447 19.8571 40.2376 20.0726C40.6451 20.5279 41.6853 21.7916 42.1759 23.8014L22.7464 28.5443ZM26.1194 34.2139C26.2145 34.3113 26.2974 34.3933 26.3463 34.4414C26.3719 34.4665 26.3956 34.4897 26.411 34.5049C26.4293 34.5227 26.4374 34.5307 26.4458 34.5389C26.4962 34.5884 26.3977 34.494 26.2636 34.3481C26.1648 34.2407 25.7646 33.8053 25.3405 33.1429C25.1183 32.7959 24.7807 32.2196 24.4816 31.4503C24.1897 30.6995 23.8164 29.4643 23.8164 27.8939H43.8164C43.8164 26.2819 43.4328 25.0015 43.1223 24.2028C42.8046 23.3856 42.4399 22.7586 42.1838 22.3586C41.692 21.5904 41.1968 21.0405 40.9897 20.8151C40.7471 20.5512 40.5267 20.3354 40.4551 20.2652C40.3158 20.1284 40.385 20.1962 40.4292 20.2415L26.1194 34.2139ZM23.8164 27.8939C23.8164 26.1035 24.3015 24.7449 24.5984 24.0473C24.9193 23.2931 25.2696 22.7374 25.4865 22.4187C25.9113 21.7945 26.304 21.3847 26.4446 21.2408C26.7578 20.9201 26.9999 20.7284 27.1285 20.6296L39.3116 36.4906C39.6571 36.2252 40.1974 35.7837 40.7544 35.2132C41.017 34.9443 41.5182 34.4097 42.0209 33.6709C42.2403 33.3486 43.8164 31.1424 43.8164 27.8939H23.8164Z" fill="#FF3100" mask="url(#path-4-inside-2_1_3041)"/>
<line x1="12" y1="7" x2="22" y2="7" stroke="#FF3100" stroke-width="2" stroke-linecap="round"/>
<line x1="12" y1="12" x2="26" y2="12" stroke="#FF3100" stroke-width="2" stroke-linecap="round"/>
<line x1="12" y1="17" x2="32" y2="17" stroke="#FF3100" stroke-width="2" stroke-linecap="round"/>
</svg>
